<svg width="249" height="189" viewBox="0 0 249 189" fill="none" xmlns="http://www.w3.org/2000/svg">
<g clip-path="url(#clip0)">
<path d="M178.109 116.515L178.244 103.142L178.514 34.9164C178.49 34.368 178.399 33.8245 178.244 33.2981C177.995 32.5391 177.576 31.847 177.018 31.2752L146.199 1.88797C145.524 1.25142 144.674 0.829112 143.759 0.674284C143.367 0.534244 142.958 0.443617 142.544 0.40455L89.8151 0C88.416 0 87.0742 0.555281 86.085 1.54371C85.0957 2.53214 84.5399 3.87276 84.5399 5.27061L84 115.908C83.9967 117.32 84.5472 118.676 85.5334 119.687C86.5196 120.697 87.8629 121.281 89.2752 121.314L164.443 121.853H172.699C173.407 121.865 174.11 121.736 174.768 121.473C175.425 121.209 176.023 120.818 176.527 120.321C177.031 119.823 177.43 119.231 177.702 118.577C177.974 117.924 178.112 117.223 178.109 116.515Z" fill="url(#paint0_linear)"/>
<path d="M153.077 33.2306L179.183 33.3655C178.934 32.6065 178.515 31.9145 177.957 31.3427L147.318 1.94415C146.643 1.30761 145.793 0.885296 144.878 0.730469L144.743 24.9145C144.734 26.0101 144.943 27.0964 145.359 28.1102C145.775 29.124 146.389 30.0448 147.164 30.819C147.94 31.5931 148.863 32.2051 149.878 32.6192C150.893 33.0332 151.981 33.2411 153.077 33.2306Z" fill="#9EE5FA"/>
<path d="M122.835 49.0424H117.211C116.918 49.0288 116.639 48.906 116.431 48.6981C116.223 48.4903 116.1 48.2123 116.087 47.9186V42.2435C116.087 41.9454 116.205 41.6596 116.416 41.4489C116.627 41.2381 116.913 41.1197 117.211 41.1197H122.835C123.134 41.1197 123.42 41.2381 123.631 41.4489C123.841 41.6596 123.96 41.9454 123.96 42.2435V47.9186C123.96 48.2167 123.841 48.5026 123.631 48.7133C123.42 48.9241 123.134 49.0424 122.835 49.0424Z" fill="#E2E2E2"/>
<path d="M122.723 64.8768H117.099C116.801 64.8768 116.515 64.7584 116.304 64.5476C116.093 64.3368 115.974 64.051 115.974 63.753V58.134C115.974 57.8359 116.093 57.5501 116.304 57.3394C116.515 57.1286 116.801 57.0102 117.099 57.0102H122.723C123.021 57.0102 123.307 57.1286 123.518 57.3394C123.729 57.5501 123.848 57.8359 123.848 58.134V63.753C123.848 64.051 123.729 64.3368 123.518 64.5476C123.307 64.7584 123.021 64.8768 122.723 64.8768Z" fill="#E2E2E2"/>
<path d="M122.588 80.6099H116.964C116.666 80.6099 116.38 80.4914 116.169 80.2807C115.958 80.0699 115.839 79.7841 115.839 79.4861V73.8671C115.839 73.569 115.958 73.2832 116.169 73.0725C116.38 72.8617 116.666 72.7433 116.964 72.7433H122.588C122.886 72.7433 123.172 72.8617 123.383 73.0725C123.594 73.2832 123.713 73.569 123.713 73.8671V79.5422C123.698 79.8304 123.573 80.102 123.364 80.3008C123.155 80.4995 122.877 80.6102 122.588 80.6099Z" fill="#E2E2E2"/>
<path d="M122.453 96.4554H116.829C116.531 96.4554 116.245 96.337 116.034 96.1263C115.823 95.9155 115.704 95.6296 115.704 95.3316V89.7126C115.704 89.4146 115.823 89.1287 116.034 88.918C116.245 88.7072 116.531 88.5888 116.829 88.5888H122.453C122.751 88.5888 123.037 88.7072 123.248 88.918C123.459 89.1287 123.578 89.4146 123.578 89.7126V95.3316C123.578 95.6296 123.459 95.9155 123.248 96.1263C123.037 96.337 122.751 96.4554 122.453 96.4554Z" fill="#E2E2E2"/>
<path d="M163.563 47.0084L130.844 46.7387C130.574 46.7387 130.439 46.469 130.439 46.1993V44.0416C130.439 43.7719 130.709 43.637 130.979 43.637L163.698 43.9067C163.968 43.9067 164.103 44.1764 164.103 44.4461V46.6038C163.968 46.7387 163.833 47.0084 163.563 47.0084Z" fill="#E2E2E2"/>
<path d="M163.428 62.8202L130.709 62.5505C130.439 62.5505 130.304 62.2808 130.304 62.0111V59.8422C130.304 59.5725 130.574 59.4376 130.844 59.4376L163.462 59.7073C163.732 59.7073 163.867 59.977 163.867 60.2467V62.4156C163.968 62.5505 163.698 62.8202 163.428 62.8202Z" fill="#E2E2E2"/>
<path d="M163.327 78.4859L130.709 78.3511C130.439 78.3511 130.304 78.0814 130.304 77.8117V75.654C130.304 75.3843 130.574 75.2494 130.844 75.2494L163.563 75.5191C163.833 75.5191 163.968 75.7888 163.968 76.0586V78.2162C163.792 78.3774 163.565 78.4726 163.327 78.4859Z" fill="#E2E2E2"/>
<path d="M163.158 94.2977L130.439 94.028C130.169 94.028 130.034 93.7471 130.034 93.4774V91.3197C130.034 91.05 130.304 90.9151 130.574 90.9151L163.293 91.1848C163.563 91.1848 163.698 91.4546 163.698 91.7243V93.8819C163.698 94.1629 163.428 94.2977 163.158 94.2977Z" fill="#E2E2E2"/>
<path d="M223.187 47.0083C221.801 45.6854 220.701 44.0921 219.956 42.3272C219.211 40.5623 218.837 38.6634 218.856 36.7481H216.967C216.997 40.5825 215.518 44.2753 212.848 47.0295C210.177 49.7837 206.53 51.3785 202.694 51.4698V53.3578C206.541 53.3275 210.245 54.8134 213.003 57.4934C215.761 60.1735 217.351 63.8317 217.428 67.675H219.183C219.152 63.8291 220.641 60.1264 223.326 57.3703C226.011 54.6142 229.675 53.0271 233.523 52.9533V51.2001C231.607 51.2294 229.705 50.8733 227.929 50.1532C226.153 49.4331 224.541 48.3636 223.187 47.0083Z" fill="#FFE192"/>
<path d="M148.559 164.4C147.544 163.416 146.735 162.241 146.177 160.943C145.619 159.645 145.324 158.25 145.308 156.837H143.958C143.984 158.259 143.727 159.671 143.202 160.993C142.677 162.315 141.896 163.52 140.902 164.538C139.908 165.555 138.722 166.366 137.413 166.923C136.103 167.481 134.696 167.773 133.273 167.783V169.131C134.696 169.106 136.11 169.363 137.433 169.887C138.756 170.411 139.962 171.192 140.98 172.185C141.999 173.178 142.811 174.363 143.368 175.671C143.926 176.98 144.218 178.385 144.228 179.807H145.578C145.553 178.386 145.81 176.973 146.335 175.651C146.859 174.329 147.641 173.125 148.635 172.107C149.628 171.089 150.814 170.278 152.124 169.721C153.433 169.164 154.84 168.872 156.263 168.862V167.513C153.389 167.508 150.629 166.392 148.559 164.4Z" fill="#FFE192"/>
<path d="M124.354 144.138C123.906 143.729 123.553 143.228 123.318 142.669C123.083 142.11 122.972 141.507 122.993 140.902H122.453C122.468 142.136 121.994 143.326 121.134 144.212C120.274 145.098 119.099 145.609 117.864 145.633V146.172C119.098 146.157 120.288 146.631 121.173 147.49C122.058 148.35 122.567 149.524 122.588 150.757H123.139C123.124 149.524 123.598 148.335 124.458 147.451C125.318 146.566 126.494 146.058 127.728 146.037V145.498C127.1 145.532 126.473 145.427 125.89 145.192C125.307 144.957 124.782 144.598 124.354 144.138Z" fill="#FFE192"/>
<path d="M215.887 162.647C212.395 163.987 208.767 164.94 205.067 165.49C199.357 166.219 193.56 165.806 188.012 164.274C182.464 162.742 177.277 160.122 172.752 156.567C168.213 153.062 164.417 148.689 161.587 143.704C158.756 138.718 156.946 133.22 156.263 127.528C155.069 117.929 157.086 108.204 162.001 99.8694C166.917 91.5351 174.454 85.0597 183.438 81.4527C186.927 80.1063 190.557 79.1526 194.258 78.6095C199.966 77.8796 205.763 78.2917 211.311 79.8217C216.859 81.3517 222.047 83.969 226.572 87.5213C231.11 91.0299 234.905 95.405 237.736 100.392C240.567 105.379 242.377 110.879 243.061 116.571C244.233 126.168 242.205 135.883 237.293 144.212C232.38 152.542 224.857 159.021 215.887 162.647Z" fill="white"/>
<path d="M185.462 86.5885C188.494 85.3547 191.68 84.5381 194.933 84.161C204.978 82.9021 215.113 85.6816 223.107 91.8882C231.101 98.0948 236.301 107.22 237.561 117.257C238.596 125.61 236.842 134.07 232.571 141.325C228.3 148.579 221.751 154.222 213.941 157.376C210.911 158.619 207.724 159.44 204.471 159.815C199.492 160.443 194.437 160.084 189.597 158.758C184.757 157.432 180.227 155.166 176.264 152.089C172.302 149.012 168.985 145.184 166.505 140.825C164.024 136.466 162.428 131.661 161.808 126.686C160.736 118.327 162.478 109.849 166.761 102.589C171.044 95.3286 177.623 89.6993 185.462 86.5885ZM181.278 76.1934L185.462 86.7233L181.278 76.1934C171.131 80.2578 162.616 87.5648 157.063 96.9736C151.51 106.382 149.232 117.364 150.583 128.203C152.238 141.171 158.964 152.956 169.293 160.982C179.621 169.008 192.71 172.621 205.697 171.031C209.864 170.484 213.95 169.439 217.867 167.918C228.014 163.853 236.529 156.546 242.081 147.137C247.634 137.728 249.913 126.747 248.561 115.908C246.908 102.929 240.173 91.1342 229.832 83.1068C219.491 75.0794 206.388 71.474 193.392 73.0804C189.237 73.5138 185.169 74.563 181.323 76.1934H181.278Z" fill="url(#paint1_linear)"/>
<path d="M197.362 139.047L181.143 126.888C180.223 126.163 179.623 125.108 179.469 123.947C179.316 122.787 179.622 121.612 180.322 120.673C181.049 119.756 182.106 119.158 183.267 119.007C184.429 118.856 185.604 119.163 186.542 119.864L195.877 126.888L211.287 107.165C212.012 106.246 213.068 105.646 214.23 105.493C215.391 105.34 216.567 105.645 217.507 106.345C218.425 107.072 219.023 108.127 219.174 109.288C219.325 110.448 219.018 111.622 218.316 112.559L197.362 139.047Z" fill="#0078D4"/>
<path d="M19.9869 44.0753C17.9439 42.0791 16.7752 39.3558 16.7364 36.5009H15.3867C15.412 37.9226 15.1549 39.3353 14.6302 40.6571C14.1055 41.9789 13.3237 43.1836 12.33 44.2015C11.3363 45.2194 10.1504 46.0304 8.84098 46.5874C7.53154 47.1445 6.12456 47.4365 4.70142 47.4467V48.7952C6.12437 48.77 7.53823 49.0268 8.86116 49.5511C10.1841 50.0753 11.3898 50.8564 12.4087 51.8493C13.4275 52.8421 14.2391 54.027 14.7966 55.3353C15.3541 56.6436 15.6464 58.0494 15.6566 59.4713H17.0063C16.981 58.0496 17.2381 56.637 17.7628 55.3152C18.2874 53.9934 19.0693 52.7886 20.063 51.7707C21.0567 50.7527 22.2426 49.9418 23.552 49.3848C24.8614 48.8278 26.2684 48.5357 27.6916 48.5255V47.177C24.8213 47.1632 22.065 46.0535 19.9869 44.0753Z" fill="#FFE192"/>
<path d="M0 163.524L21.438 163.703L29.7275 183.403L70.5226 122.348L40.7839 102.468L0 163.524Z" fill="#1493DF"/>
<path d="M90.2847 181.268L70.2976 173.784L55.282 189L39.7153 117.313L74.583 109.694L90.2847 181.268Z" fill="#1493DF"/>
<path d="M103.399 118.662C102.545 122.516 95.526 124.09 93.8389 127.45C91.983 130.933 94.7612 137.451 92.2642 140.328C89.7673 143.205 82.7599 141.048 79.6556 143.172C76.5513 145.296 75.4602 152.353 71.7823 153.421C68.1043 154.488 63.3353 149.397 59.4099 149.476C55.4845 149.555 51.2779 155.309 47.4199 154.466C43.562 153.623 41.9873 146.599 38.613 144.925C35.1263 143.07 28.6027 145.835 25.7345 143.34C22.8664 140.845 25.0147 133.855 22.8889 130.742C20.7631 127.629 13.6883 126.551 12.6198 122.876C11.5512 119.201 16.6577 114.425 16.5789 110.514C16.5002 106.603 10.7301 102.389 11.5737 98.5344C12.4173 94.6798 19.4471 93.0952 21.1342 89.7351C22.9901 86.2513 20.2119 79.7333 22.7089 76.8564C25.2059 73.9795 32.2131 76.1372 35.3175 74.0245C38.4218 71.9117 39.5128 64.8318 43.1908 63.7642C46.8688 62.6966 51.6378 67.7874 55.5632 67.72C59.4886 67.6525 63.6952 61.8762 67.5532 62.7191C71.4111 63.5619 72.9858 70.5856 76.3601 72.2713C79.7343 73.957 86.3705 71.3498 89.2386 73.8446C92.1068 76.3394 89.9585 83.3295 92.0843 86.4424C94.2101 89.5553 101.285 90.6341 102.353 94.309C103.422 97.9838 98.3154 102.76 98.3942 106.671C98.6529 110.469 104.243 114.796 103.399 118.662Z" fill="#0C59A4"/>
<path d="M53.235 128.057C58.4359 129.193 63.8756 128.219 68.3577 125.348C72.8399 122.478 75.9975 117.947 77.1362 112.75C77.701 110.178 77.7531 107.52 77.2894 104.927C76.8257 102.335 75.8553 99.8592 74.4338 97.6415C73.0122 95.4239 71.1673 93.5078 69.0044 92.0027C66.8415 90.4977 64.403 89.433 61.8282 88.8698C59.2506 88.3076 56.5874 88.2585 53.9909 88.7253C51.3943 89.1921 48.9154 90.1657 46.6956 91.5904C44.4759 93.015 42.5589 94.8628 41.0543 97.0281C39.5498 99.1934 38.4871 101.634 37.927 104.21C36.7994 109.4 37.7777 114.824 40.6473 119.295C43.5169 123.765 48.0437 126.916 53.235 128.057Z" fill="url(#paint2_linear)"/>
<path d="M61.9746 88.9035C66.8544 89.9748 71.1566 92.8314 74.0352 96.9116C76.9137 100.992 78.1604 106 77.53 110.952C77.202 113.575 76.3597 116.108 75.0514 118.406C73.743 120.703 71.9943 122.721 69.9051 124.343C67.8159 125.965 65.4272 127.159 62.8757 127.858C60.3241 128.557 57.6597 128.747 55.0348 128.416C54.4499 128.293 53.82 128.304 53.2239 128.18C48.341 127.106 44.0369 124.246 41.1583 120.161C38.2796 116.077 37.0347 111.064 37.6684 106.109C37.9965 103.486 38.8388 100.953 40.1471 98.6554C41.4555 96.3578 43.2042 94.3404 45.2934 92.7185C47.3826 91.0966 49.7712 89.9021 52.3228 89.2031C54.8743 88.5041 57.5387 88.3145 60.1637 88.6451C60.7486 88.7911 61.3785 88.7799 61.9746 88.9035ZM63.9317 80.0031C63.0425 79.7788 62.1355 79.6322 61.221 79.5648C53.5317 78.6111 45.7779 80.7453 39.6623 85.4988C33.5466 90.2523 29.569 97.2364 28.6028 104.918C27.6335 112.148 29.4284 119.477 33.6294 125.443C37.8304 131.409 44.1285 135.572 51.2668 137.103C52.1571 137.322 53.0636 137.468 53.9775 137.541C61.6685 138.495 69.4238 136.359 75.5398 131.603C81.6557 126.848 85.6322 119.861 86.5956 112.177C87.5592 104.95 85.7618 97.6243 81.5615 91.6615C77.3612 85.6986 71.0664 81.536 63.9317 80.0031Z" fill="#1493DF"/>
</g>
<defs>
<linearGradient id="paint0_linear" x1="167.727" y1="32.7699" x2="87.2798" y2="94.9378" gradientUnits="userSpaceOnUse">
<stop stop-color="#E2E2E2"/>
<stop offset="0.07" stop-color="#E8E8E8"/>
<stop offset="0.26" stop-color="#F3F3F3"/>
<stop offset="0.47" stop-color="#F7F7F7"/>
</linearGradient>
<linearGradient id="paint1_linear" x1="150.19" y1="122.055" x2="249" y2="122.055" gradientUnits="userSpaceOnUse">
<stop stop-color="#28AFEA"/>
<stop offset="0.57" stop-color="#1384CE"/>
<stop offset="1" stop-color="#0669BC"/>
</linearGradient>
<linearGradient id="paint2_linear" x1="40.6219" y1="119.263" x2="74.4018" y2="97.5983" gradientUnits="userSpaceOnUse">
<stop offset="0.09" stop-color="#FBC455"/>
<stop offset="0.37" stop-color="#FCCF6C"/>
<stop offset="0.77" stop-color="#FEDC88"/>
<stop offset="1" stop-color="#FFE192"/>
</linearGradient>
<clipPath id="clip0">
<rect width="249" height="189" rx="5" fill="white"/>
</clipPath>
</defs>
</svg>
