<svg width="38" height="42" viewBox="0 0 38 42" fill="none" xmlns="http://www.w3.org/2000/svg">
<g clip-path="url(#clip0)">
<path d="M25.0283 35.4183L16.8498 41.6706C16.5931 41.8764 16.2755 41.9884 15.9484 41.9884C15.6213 41.9884 15.3037 41.8764 15.047 41.6706L6.8805 35.4183C4.74762 33.7813 3.0182 31.664 1.82841 29.2332C0.638624 26.8024 0.0209386 24.1245 0.0239857 21.4102V8.81112C0.0226829 8.7052 0.0426257 8.60012 0.0826007 8.50228C0.122576 8.40443 0.181747 8.31587 0.256513 8.24197C0.331279 8.16808 0.420076 8.1104 0.5175 8.07244C0.614924 8.03449 0.718938 8.01705 0.823211 8.0212C3.18183 8.1127 10.438 7.93275 15.9784 3.02548C21.3146 7.72231 28.745 8.0517 31.1307 7.9907C31.2319 7.98989 31.3323 8.00953 31.426 8.04848C31.5197 8.08743 31.6048 8.14491 31.6764 8.21757C31.7479 8.29024 31.8046 8.37663 31.8429 8.47172C31.8813 8.56682 31.9007 8.66871 31.8999 8.77147V21.3828C31.9044 24.1028 31.286 26.7867 30.0935 29.2225C28.9009 31.6583 27.1669 33.7794 25.0283 35.4183Z" fill="#45B4FF"/>
<path d="M0.823212 8.0639C0.719324 8.05712 0.615179 8.07232 0.517387 8.10856C0.419595 8.14479 0.330291 8.20126 0.255141 8.27439C0.179991 8.34752 0.120637 8.43571 0.0808445 8.53335C0.0410518 8.631 0.0216895 8.73598 0.0239866 8.84163V21.4407C0.022231 24.1559 0.642049 26.8344 1.83454 29.2649C3.02704 31.6953 4.75959 33.8113 6.89552 35.4458L15.062 41.7011C15.315 41.8995 15.6258 42.0068 15.9454 42.0061V3.03769C10.4049 7.94496 3.18183 8.1249 0.823212 8.0639Z" fill="#5EC3EF"/>
<path d="M15.9785 6.35902C20.6356 9.61935 26.092 10.4276 29.334 10.6075V21.4102C29.3311 23.72 28.8028 25.9979 27.7902 28.0664C26.7776 30.1349 25.308 31.938 23.496 33.3353L15.9845 39.0813L8.46098 33.3353C6.64903 31.938 5.17945 30.1349 4.16682 28.0664C3.15419 25.9979 2.62587 23.72 2.62303 21.4102V10.6685C5.98518 10.5465 11.2613 9.71084 15.9785 6.35902ZM15.9485 3.03769C10.9067 7.49662 4.47988 8.0639 1.5624 8.0639H0.766182C0.563946 8.06705 0.370861 8.15 0.227842 8.29517C0.084823 8.44035 0.00310654 8.63634 6.59854e-06 8.84163V21.4407C-0.00233189 24.1557 0.616921 26.8341 1.8089 29.2646C3.00089 31.6951 4.73299 33.8111 6.86854 35.4458L15.0471 41.7011C15.3 41.8995 15.6108 42.0068 15.9304 42.0061C16.2509 42.0064 16.5625 41.8991 16.8168 41.7011L24.9623 35.4458C27.099 33.8116 28.8324 31.6959 30.0259 29.2654C31.2195 26.835 31.8404 24.1564 31.8398 21.4407V8.81113C31.8391 8.60396 31.7585 8.40532 31.6153 8.2577C31.4721 8.11007 31.2777 8.02519 31.0737 8.02121H30.7732C28.1532 8.02121 21.0773 7.58507 15.9485 3.03769Z" fill="url(#paint0_linear)"/>
<path d="M25.0283 35.4183L16.8498 41.6706C16.5969 41.869 16.2861 41.9763 15.9664 41.9756V3.03769C21.3026 7.73452 28.733 8.0639 31.1187 8.00291C31.2199 8.00209 31.3203 8.02173 31.414 8.06068C31.5076 8.09963 31.5928 8.15711 31.6643 8.22978C31.7359 8.30244 31.7926 8.38884 31.8309 8.48393C31.8693 8.57902 31.8887 8.68092 31.8879 8.78368V21.3828C31.8938 24.1018 31.2773 26.785 30.0869 29.2207C28.8964 31.6565 27.1647 33.7782 25.0283 35.4183Z" fill="url(#paint1_radial)"/>
<path d="M32.4107 8.68607L25.8636 8.23773L25.3408 15.9509L31.8999 16.4023L32.4107 8.68607Z" fill="#0078D4"/>
<path d="M36.4399 7.55458L34.7002 7.13675L35.0247 5.66975C35.5836 3.15665 34.1234 0.670988 31.8399 0.134207C29.5564 -0.402573 27.1527 1.21082 26.5908 3.75137L26.2903 5.12687L24.3734 4.67854C24.1636 4.64143 23.9477 4.68531 23.7681 4.80156C23.5885 4.91782 23.4583 5.09804 23.4029 5.30682L20.9241 16.0821C20.8825 16.2896 20.9219 16.5055 21.034 16.6841C21.1461 16.8627 21.3222 16.9902 21.525 17.0397L33.6096 19.9158C33.711 19.9387 33.8159 19.9411 33.9182 19.9229C34.0205 19.9046 34.1183 19.866 34.2059 19.8094C34.2935 19.7527 34.3693 19.6791 34.4289 19.5927C34.4884 19.5063 34.5306 19.4088 34.553 19.3058L37.0288 8.5641C37.0589 8.45851 37.0674 8.34779 37.0537 8.23876C37.0401 8.12972 37.0045 8.02468 36.9494 7.93011C36.8942 7.83553 36.8205 7.75342 36.7329 7.68884C36.6453 7.62426 36.5456 7.57857 36.4399 7.55458ZM31.251 2.73576C31.4942 2.79878 31.7227 2.91037 31.923 3.06401C32.1233 3.21765 32.2914 3.41026 32.4176 3.6306C32.5437 3.85093 32.6254 4.09457 32.6577 4.34728C32.6901 4.6 32.6725 4.85673 32.606 5.10247L32.2815 6.53897L28.676 5.66975L29.0005 4.26375C29.1056 3.76168 29.3996 3.32107 29.8199 3.0357C30.2402 2.75032 30.7537 2.64271 31.251 2.73576ZM29.7156 13.6605C29.6585 13.691 29.5984 13.7215 29.5984 13.7794L29.3641 14.7981C29.3351 14.9182 29.283 15.0314 29.2109 15.1311C29.1388 15.2309 29.0481 15.3152 28.9439 15.3794C28.8397 15.4435 28.7241 15.4862 28.6036 15.505C28.4831 15.5238 28.3602 15.5183 28.2418 15.4889C28.1235 15.4594 28.012 15.4066 27.9137 15.3334C27.8154 15.2603 27.7323 15.1681 27.6692 15.0624C27.606 14.9566 27.5639 14.8392 27.5454 14.7169C27.5269 14.5947 27.5323 14.4699 27.5613 14.3497L27.7987 13.3616C27.8028 13.3289 27.7995 13.2957 27.7891 13.2645C27.7787 13.2334 27.7614 13.205 27.7386 13.1816C27.4364 12.9117 27.2152 12.5608 27.1005 12.1692C26.9857 11.7776 26.9819 11.3611 27.0896 10.9674C27.2551 10.4404 27.6034 9.99236 28.0698 9.7063C28.5361 9.42025 29.0889 9.31567 29.6255 9.41196C29.9049 9.4733 30.1697 9.59027 30.4043 9.7561C30.639 9.92194 30.8389 10.1333 30.9926 10.3781C31.1463 10.6229 31.2506 10.8961 31.2996 11.1821C31.3486 11.468 31.3412 11.761 31.278 12.044C31.1787 12.4282 30.9824 12.7794 30.7083 13.0629C30.4343 13.3464 30.0921 13.5524 29.7156 13.6605Z" fill="#A8F3FF"/>
<path d="M32.3115 6.53897L34.7152 7.10625L35.0397 5.63925C35.6136 3.14139 34.1684 0.643536 31.8729 0.0915061C29.5774 -0.460524 27.1857 1.16812 26.6238 3.71172L26.3234 5.09027L28.7271 5.65755L29.0515 4.25155C29.1492 3.74615 29.4386 3.29993 29.8573 3.009C30.276 2.71806 30.7905 2.6057 31.29 2.69611C31.5334 2.75845 31.7621 2.86948 31.9627 3.02267C32.1633 3.17587 32.3318 3.36816 32.4583 3.58829C32.5848 3.80841 32.6667 4.05194 32.6993 4.30462C32.7319 4.55729 32.7145 4.81402 32.6481 5.05977L32.3115 6.53897Z" fill="url(#paint2_linear)"/>
</g>
<defs>
<linearGradient id="paint0_linear" x1="6.59854e-06" y1="22.5173" x2="31.8398" y2="22.5173" gradientUnits="userSpaceOnUse">
<stop stop-color="#0078D4"/>
<stop offset="0.01" stop-color="#037AD5"/>
<stop offset="0.09" stop-color="#1F91DD"/>
<stop offset="0.19" stop-color="#36A3E3"/>
<stop offset="0.3" stop-color="#48B1E9"/>
<stop offset="0.43" stop-color="#55BBEC"/>
<stop offset="0.61" stop-color="#5CC1EE"/>
<stop offset="1" stop-color="#5EC3EF"/>
</linearGradient>
<radialGradient id="paint1_radial" cx="0" cy="0" r="1" gradientUnits="userSpaceOnUse" gradientTransform="translate(31.1973 14.1564) scale(12.6202 12.8104)">
<stop stop-color="#5EC3EF"/>
<stop offset="0.29" stop-color="#60C4EF"/>
<stop offset="0.45" stop-color="#69C9F1"/>
<stop offset="0.58" stop-color="#76D0F3"/>
<stop offset="0.67" stop-color="#85D8F6"/>
<stop offset="1" stop-color="#9EE5FA"/>
</radialGradient>
<linearGradient id="paint2_linear" x1="29.968" y1="9.75965" x2="30.9485" y2="3.99404" gradientUnits="userSpaceOnUse">
<stop stop-color="#28C2D1"/>
<stop offset="1" stop-color="#7BDDEF"/>
</linearGradient>
<clipPath id="clip0">
<rect width="37.0588" height="42" fill="white"/>
</clipPath>
</defs>
</svg>
