<svg width="158" height="174" viewBox="0 0 158 174" fill="none" xmlns="http://www.w3.org/2000/svg">
<path d="M83.4559 48.5583C46.5559 41.1583 9.91596 60.8283 1.59596 92.4183C-3.40404 111.078 3.86596 128.558 16.136 143.418C25.216 154.418 14.206 173.498 14.206 173.498C14.206 173.498 33.116 164.168 37.316 162.408C40.6554 160.963 44.3804 160.667 47.906 161.568C49.666 162.068 51.436 162.408 53.196 162.828C90.086 170.218 126.726 150.558 135.046 118.958C143.536 87.4682 120.346 55.8683 83.4559 48.5583Z" fill="url(#paint0_linear)"/>
<path d="M54 91L85 123" stroke="white" stroke-width="10" stroke-miterlimit="10" stroke-linecap="round" stroke-linejoin="bevel"/>
<path d="M54 123L85 91" stroke="white" stroke-width="10" stroke-miterlimit="10" stroke-linecap="round" stroke-linejoin="bevel"/>
<path d="M123.216 35.852C122.518 36.6212 122.085 37.6125 121.982 38.6757C121.879 39.739 122.112 40.8165 122.646 41.7449C122.845 42.07 123.083 42.368 123.354 42.6315C123.789 43.0835 124.303 43.4428 124.867 43.6884C125.432 43.934 126.035 44.061 126.641 44.0621C127.248 44.0631 127.846 43.9382 128.4 43.6944C128.954 43.4507 129.453 43.0931 129.869 42.6426L137.843 34.0156C138.268 33.5832 138.593 33.0562 138.795 32.4724C138.998 31.8885 139.074 31.2623 139.017 30.6381C139.033 30.1205 138.95 29.602 138.772 29.1138C138.593 28.6256 138.323 28.1777 137.978 27.7963C137.763 27.6176 137.725 27.4216 137.514 27.2567C137.079 26.8064 136.564 26.4487 136 26.2042C135.436 25.9596 134.833 25.833 134.227 25.832C133.621 25.8309 133.024 25.9554 132.47 26.1981C131.916 26.4407 131.416 26.7968 131 27.2456L123.216 35.852Z" fill="#FFE192"/>
<path d="M135.698 60.6942C135.81 61.1839 136.015 61.6475 136.303 62.0638C136.818 62.8252 137.573 63.4152 138.469 63.7568C139.364 64.0984 140.359 64.1757 141.324 63.9787L152.356 61.2482C153.585 60.8736 154.656 60.1196 155.388 59.1127C156.036 58.0668 156.277 56.855 156.07 55.6898C155.988 55.0528 155.692 54.464 155.223 54.0078C154.944 53.6099 154.556 53.291 154.097 53.0829C153.004 52.5287 151.724 52.3526 150.476 52.5843L139.448 55.3274C138.213 55.7004 137.137 56.4559 136.402 57.4664C136.056 57.939 135.815 58.4693 135.694 59.0246C135.573 59.5798 135.574 60.1482 135.698 60.6942Z" fill="#FFE192"/>
<path d="M101.192 26.5318C101.128 27.6168 101.371 28.6995 101.893 29.6534C102.277 30.2757 102.794 30.8042 103.405 31.2004C104.016 31.5967 104.707 31.8508 105.426 31.944C106.709 32.0184 107.969 31.5979 108.952 30.7679C109.935 29.9379 110.567 28.7603 110.719 27.4733L111.878 14.5555C111.983 13.9285 111.932 13.2842 111.731 12.6801C111.529 12.076 111.182 11.5312 110.722 11.0939C109.906 10.0521 108.723 9.36855 107.422 9.18706C106.14 9.11147 104.881 9.52949 103.898 10.3567C102.914 11.1839 102.281 12.3587 102.124 13.6438L101.192 26.5318Z" fill="#FFE192"/>
<defs>
<linearGradient id="paint0_linear" x1="-0.314041" y1="174.348" x2="141.546" y2="32.4782" gradientUnits="userSpaceOnUse">
<stop offset="0.19" stop-color="#28AFEA"/>
<stop offset="0.48" stop-color="#5EC3EF"/>
<stop offset="0.88" stop-color="#6DD8F7"/>
<stop offset="0.92" stop-color="#6DD4F6"/>
<stop offset="0.95" stop-color="#6FC9F5"/>
<stop offset="0.98" stop-color="#71B6F2"/>
<stop offset="1" stop-color="#9EE5FA"/>
</linearGradient>
</defs>
</svg>
